{
  "accessors": [
    {
      "bufferView": 2,
      "componentType": 5126,
      "count": 15986,
      "max": [
        0.4401174783706665,
        0.42324262857437134,
        0.57662296295166016
      ],
      "min": [
        -0.4164775013923645,
        -0.44493994116783142,
        -0.58402180671691895
      ],
      "type": "VEC3"
    },
    {
      "bufferView": 2,
      "byteOffset": 191832,
      "componentType": 5126,
      "count": 15986,
      "max": [
        0.99998652935028076,
        0.99999451637268066,
        0.99999237060546875
      ],
      "min": [
        -0.99998271465301514,
        -0.99999654293060303,
        -0.99930953979492188
      ],
      "type": "VEC3"
    },
    {
      "bufferView": 3,
      "componentType": 5126,
      "count": 15986,
      "max": [
        0.99958229064941406,
        0.99934995174407959,
        0.99992746114730835,
        1
      ],
      "min": [
        -0.99997580051422119,
        -0.99996882677078247,
        -0.99998533725738525,
        1
      ],
      "type": "VEC4"
    },
    {
      "bufferView": 1,
      "componentType": 5126,
      "count": 15986,
      "max": [
        0.99743187427520752,
        0.99451297521591187
      ],
      "min": [
        0.0019641285762190819,
        0.49193456768989563
      ],
      "type": "VEC2"
    },
    {
      "bufferView": 0,
      "componentType": 5125,
      "count": 81132,
      "max": [
        15985
      ],
      "min": [
        0
      ],
      "type": "SCALAR"
    },
    {
      "bufferView": 2,
      "byteOffset": 383664,
      "componentType": 5126,
      "count": 642,
      "max": [
        1,
        1,
        1
      ],
      "min": [
        -1,
        -1,
        -1
      ],
      "type": "VEC3"
    },
    {
      "bufferView": 2,
      "byteOffset": 391368,
      "componentType": 5126,
      "count": 642,
      "max": [
        1,
        1,
        1
      ],
      "min": [
        -1,
        -1,
        -1
      ],
      "type": "VEC3"
    },
    {
      "bufferView": 1,
      "byteOffset": 127888,
      "componentType": 5126,
      "count": 642,
      "max": [
        0.99894517660140991,
        0.49954661726951599
      ],
      "min": [
        0.0010547931306064129,
        0.0010547931306064129
      ],
      "type": "VEC2"
    },
    {
      "bufferView": 0,
      "byteOffset": 324528,
      "componentType": 5125,
      "count": 3600,
      "max": [
        641
      ],
      "min": [
        0
      ],
      "type": "SCALAR"
    }
  ],
  "asset": {
    "extras": {
      "author": "Azamuki (https://sketchfab.com/Azamuki)",
      "license": "CC-BY-4.0 (http://creativecommons.org/licenses/by/4.0/)",
      "source": "https://sketchfab.com/3d-models/heart-in-real-05db4fe42370427cbdc67486424aae31",
      "title": "Heart in Real"
    },
    "generator": "Sketchfab-8.59.0",
    "version": "2.0"
  },
  "bufferViews": [
    {
      "buffer": 0,
      "byteLength": 338928,
      "byteOffset": 0,
      "name": "floatBufferViews",
      "target": 34963
    },
    {
      "buffer": 0,
      "byteLength": 133024,
      "byteOffset": 338928,
      "byteStride": 8,
      "name": "floatBufferViews",
      "target": 34962
    },
    {
      "buffer": 0,
      "byteLength": 399072,
      "byteOffset": 471952,
      "byteStride": 12,
      "name": "floatBufferViews",
      "target": 34962
    },
    {
      "buffer": 0,
      "byteLength": 255776,
      "byteOffset": 871024,
      "byteStride": 16,
      "name": "floatBufferViews",
      "target": 34962
    }
  ],
  "buffers": [
    {
      "byteLength": 1126800,
      "uri": "scene.bin"
    }
  ],
  "images": [
    {
      "uri": "textures/Heart_baseColor.png"
    },
    {
      "uri": "textures/Heart_metallicRoughness.png"
    },
    {
      "uri": "textures/Heart_normal.png"
    },
    {
      "uri": "textures/Marble_baseColor.png"
    }
  ],
  "materials": [
    {
      "doubleSided": true,
      "name": "Heart",
      "normalTexture": {
        "index": 2,
        "scale": 1,
        "texCoord": 0
      },
      "pbrMetallicRoughness": {
        "baseColorFactor": [
          1,
          1,
          1,
          1
        ],
        "baseColorTexture": {
          "index": 0,
          "texCoord": 0
        },
        "metallicFactor": 0,
        "metallicRoughnessTexture": {
          "index": 1,
          "texCoord": 0
        },
        "roughnessFactor": 1
      }
    },
    {
      "alphaMode": "BLEND",
      "doubleSided": true,
      "name": "Marble",
      "pbrMetallicRoughness": {
        "baseColorFactor": [
          1,
          1,
          1,
          0.10000000000000001
        ],
        "baseColorTexture": {
          "index": 3,
          "texCoord": 0
        },
        "metallicFactor": 0,
        "metallicRoughnessTexture": {
          "index": 1,
          "texCoord": 0
        },
        "roughnessFactor": 1
      }
    }
  ],
  "meshes": [
    {
      "name": "Heart_Heart_0",
      "primitives": [
        {
          "attributes": {
            "NORMAL": 1,
            "POSITION": 0,
            "TANGENT": 2,
            "TEXCOORD_0": 3
          },
          "indices": 4,
          "material": 0,
          "mode": 4
        }
      ]
    },
    {
      "name": "Marble_Marble_0",
      "primitives": [
        {
          "attributes": {
            "NORMAL": 6,
            "POSITION": 5,
            "TEXCOORD_0": 7
          },
          "indices": 8,
          "material": 1,
          "mode": 4
        }
      ]
    }
  ],
  "nodes": [
    {
      "children": [
        1
      ],
      "name": "RootNode (gltf orientation matrix)",
      "rotation": [
        -0.70710678118654746,
        -0,
        -0,
        0.70710678118654757
      ]
    },
    {
      "children": [
        2
      ],
      "matrix": [
        0.0099622830748558044,
        0,
        0,
        0,
        0,
        0.0099622830748558044,
        0,
        0,
        0,
        0,
        0.0099622830748558044,
        0,
        0,
        0,
        0,
        1
      ],
      "name": "RootNode (model correction matrix)"
    },
    {
      "children": [
        3
      ],
      "matrix": [
        1,
        0,
        0,
        0,
        0,
        0,
        1,
        0,
        0,
        -1,
        0,
        0,
        0,
        0,
        0,
        1
      ],
      "name": "heart_in_real_original.fbx"
    },
    {
      "children": [
        4,
        6,
        8,
        11,
        14,
        17,
        20,
        23
      ],
      "name": "RootNode"
    },
    {
      "children": [
        5
      ],
      "matrix": [
        132.7440185546875,
        0,
        0,
        0,
        0,
        -2.1626745688131563e-05,
        -132.74401855468574,
        0,
        0,
        132.74401855468574,
        -2.1626745688131563e-05,
        0,
        0,
        0,
        0,
        1
      ],
      "name": "Heart"
    },
    {
      "mesh": 0,
      "name": "Heart_Heart_0"
    },
    {
      "children": [
        7
      ],
      "matrix": [
        100,
        0,
        0,
        0,
        0,
        -1.6292067939183141e-05,
        -99.999999999998678,
        0,
        0,
        99.999999999998678,
        -1.6292067939183141e-05,
        0,
        0,
        0,
        0,
        1
      ],
      "name": "Marble"
    },
    {
      "mesh": 1,
      "name": "Marble_Marble_0"
    },
    {
      "children": [
        9
      ],
      "matrix": [
        100,
        0,
        0,
        0,
        0,
        99.999999999999716,
        -7.5497901264043296e-06,
        0,
        0,
        7.5497901264043296e-06,
        99.999999999999716,
        0,
        0,
        200,
        0,
        1
      ],
      "name": "Sun"
    },
    {
      "children": [
        10
      ],
      "matrix": [
        1,
        0,
        0,
        0,
        0,
        2.2204460492503131e-16,
        1,
        0,
        0,
        -1,
        2.2204460492503131e-16,
        0,
        0,
        0,
        0,
        1
      ],
      "name": ""
    },
    {
      "name": ""
    },
    {
      "children": [
        12
      ],
      "matrix": [
        -99.999999999992426,
        3.8941437731121185e-05,
        1.1746023567042827e-12,
        0,
        -3.8941437731119281e-05,
        -99.9999999999865,
        -3.4421557870700117e-05,
        0,
        -1.2229647167596404e-11,
        -3.4421557870697969e-05,
        99.999999999994074,
        0,
        0,
        200,
        0,
        1
      ],
      "name": "Sun.001"
    },
    {
      "children": [
        13
      ],
      "matrix": [
        1,
        0,
        0,
        0,
        0,
        2.2204460492503131e-16,
        1,
        0,
        0,
        -1,
        2.2204460492503131e-16,
        0,
        0,
        0,
        0,
        1
      ],
      "name": ""
    },
    {
      "name": ""
    },
    {
      "children": [
        15
      ],
      "matrix": [
        70.710676573223395,
        -70.710679664085433,
        -9.5006043920875425e-06,
        0,
        70.710679664084523,
        70.710676573224021,
        -1.1485070672279031e-05,
        0,
        1.4839113176459588e-05,
        1.4032292394403922e-06,
        99.999999999998892,
        0,
        0,
        200,
        0,
        1
      ],
      "name": "Sun.002"
    },
    {
      "children": [
        16
      ],
      "matrix": [
        1,
        0,
        0,
        0,
        0,
        2.2204460492503131e-16,
        1,
        0,
        0,
        -1,
        2.2204460492503131e-16,
        0,
        0,
        0,
        0,
        1
      ],
      "name": ""
    },
    {
      "name": ""
    },
    {
      "children": [
        18
      ],
      "matrix": [
        5.338507954432631e-06,
        -70.710681968020026,
        70.71068505888249,
        0,
        1.4132212157356329e-05,
        70.710685058882405,
        70.710681968018875,
        0,
        -99.999999999998877,
        6.2180876947426356e-06,
        1.3767877038439735e-05,
        0,
        0,
        200,
        0,
        1
      ],
      "name": "Sun.003"
    },
    {
      "children": [
        19
      ],
      "matrix": [
        1,
        0,
        0,
        0,
        0,
        2.2204460492503131e-16,
        1,
        0,
        0,
        -1,
        2.2204460492503131e-16,
        0,
        0,
        0,
        0,
        1
      ],
      "name": ""
    },
    {
      "name": ""
    },
    {
      "children": [
        21
      ],
      "matrix": [
        -70.710685002592271,
        -70.710671234714923,
        1.5099579909783704e-05,
        0,
        -70.710671234713814,
        70.710685002593877,
        1.2661479343901135e-05,
        0,
        -1.9630033419039376e-05,
        -1.723995532295832e-06,
        -99.999999999998039,
        0,
        0,
        200,
        0,
        1
      ],
      "name": "Sun.004"
    },
    {
      "children": [
        22
      ],
      "matrix": [
        1,
        0,
        0,
        0,
        0,
        2.2204460492503131e-16,
        1,
        0,
        0,
        -1,
        2.2204460492503131e-16,
        0,
        0,
        0,
        0,
        1
      ],
      "name": ""
    },
    {
      "name": ""
    },
    {
      "children": [
        24
      ],
      "matrix": [
        -3.090861766530395e-06,
        -70.710672358538588,
        -70.710683878770382,
        0,
        -1.2802767124231451e-06,
        70.710683878770439,
        -70.710672358538588,
        0,
        99.999999999999943,
        -1.2802767124231451e-06,
        -3.090861766530395e-06,
        0,
        0,
        200,
        0,
        1
      ],
      "name": "Sun.005"
    },
    {
      "children": [
        25
      ],
      "matrix": [
        1,
        0,
        0,
        0,
        0,
        2.2204460492503131e-16,
        1,
        0,
        0,
        -1,
        2.2204460492503131e-16,
        0,
        0,
        0,
        0,
        1
      ],
      "name": ""
    },
    {
      "name": ""
    }
  ],
  "samplers": [
    {
      "magFilter": 9729,
      "minFilter": 9987,
      "wrapS": 10497,
      "wrapT": 10497
    }
  ],
  "scene": 0,
  "scenes": [
    {
      "name": "OSG_Scene",
      "nodes": [
        0
      ]
    }
  ],
  "textures": [
    {
      "sampler": 0,
      "source": 0
    },
    {
      "sampler": 0,
      "source": 1
    },
    {
      "sampler": 0,
      "source": 2
    },
    {
      "sampler": 0,
      "source": 3
    }
  ]
}

